<?xml version="1.0" standalone="no"?>
<!DOCTYPE svg PUBLIC "-//W3C//DTD SVG 20010904//EN"
 "http://www.w3.org/TR/2001/REC-SVG-20010904/DTD/svg10.dtd">
<svg version="1.0" xmlns="http://www.w3.org/2000/svg"
 width="260.000000pt" height="260.000000pt" viewBox="0 0 260.000000 260.000000"
 preserveAspectRatio="xMidYMid meet">
<metadata>
Created by potrace 1.14, written by Peter Selinger 2001-2017
</metadata>
<g transform="translate(0.000000,260.000000) scale(0.100000,-0.100000)"
fill="#000000" stroke="none">
<path d="M425 2576 c-42 -15 -68 -36 -91 -70 -20 -31 -27 -106 -13 -141 8 -21
69 -220 74 -239 1 -6 5 -19 8 -28 4 -10 10 -26 14 -35 3 -10 8 -26 10 -37 2
-10 12 -46 24 -80 11 -33 22 -68 24 -76 2 -8 18 -60 35 -115 74 -239 88 -285
83 -285 -3 0 -1 -6 5 -13 11 -13 43 -117 45 -147 1 -15 -18 -90 -30 -120 -7
-17 -6 -12 -23 -70 -7 -25 -14 -49 -16 -55 -1 -5 -18 -64 -39 -130 -20 -66
-40 -133 -45 -150 -7 -28 -56 -193 -66 -225 -3 -8 -5 -16 -5 -17 0 -2 -6 -21
-14 -43 -8 -22 -12 -40 -8 -40 3 0 0 -7 -7 -15 -6 -8 -9 -18 -6 -24 4 -5 1
-15 -6 -23 -7 -7 -14 -22 -16 -33 -2 -11 -12 -49 -22 -85 -32 -107 -34 -136
-11 -183 20 -40 59 -77 84 -81 7 -1 17 -4 22 -8 20 -11 85 0 114 21 16 12 32
21 36 21 3 0 36 19 73 43 37 24 114 72 172 107 58 35 108 69 112 75 4 5 8 7 8
2 0 -4 22 9 50 28 27 19 52 35 54 35 3 0 25 14 49 30 25 17 47 30 50 30 3 0
38 22 79 48 40 27 89 57 108 67 19 10 37 21 40 24 4 6 87 57 115 71 6 3 35 21
65 41 30 19 178 111 328 204 202 124 285 181 318 218 24 27 41 53 38 58 -3 5
-1 9 5 9 5 0 13 15 16 32 4 18 10 38 14 43 8 14 10 148 1 160 -3 6 -13 29 -20
53 -17 54 -76 122 -143 165 -85 55 -111 71 -129 82 -90 52 -294 180 -296 187
-2 4 -7 8 -11 8 -8 0 -130 72 -211 125 -25 16 -47 30 -50 30 -5 1 -100 60
-161 101 -19 13 -40 24 -46 24 -6 0 -13 4 -15 8 -1 4 -19 17 -38 28 -117 70
-225 139 -228 146 -2 4 -8 8 -14 8 -10 0 -109 60 -278 169 -115 74 -160 88
-215 67z"/>
</g>
</svg>
